<svg width="518" height="120" xmlns="http://www.w3.org/2000/svg" fill="none">

 <g>
  <title>Layer 1</title>
  <path id="svg_1" fill="#FA776C" d="m0,27.6619c0,-7.7729 8.47971,-12.5741 15.145,-8.5749l25.1449,15.087c6.0241,3.6144 9.7101,10.1246 9.7101,17.1498l0,17.3524c0,7.0253 -3.686,13.5354 -9.7101,17.1499l-25.145,15.0869c-6.66522,3.999 -15.14492,-0.802 -15.14491,-8.5749l0.00001,-64.6762z"/>
  <path id="svg_2" fill="#624CF5" d="m103.855,0c5.296,0 7.995,6.36198 4.314,10.1701l-13.2728,13.7303c-3.7683,3.8983 -8.9579,6.0996 -14.3797,6.0996l-24.9768,0c-3.6249,0 -7.1816,-0.9852 -10.2899,-2.8502l-26.6749,-16.0049c-5.2181,-3.13086 -2.9983,-11.14492 3.087,-11.14492l82.1931,0.00002z"/>
  <path id="svg_3" fill="#624CF5" d="m103.855,120c5.296,0 7.995,-6.362 4.314,-10.17l-13.2728,-13.7305c-3.7683,-3.8982 -8.9578,-6.0995 -14.3797,-6.0995l-24.9768,0c-3.6249,0 -7.1816,0.9851 -10.2899,2.8501l-26.6749,16.0049c-5.2181,3.131 -2.9983,11.145 3.087,11.145l82.1931,0z"/>
  <rect id="svg_4" fill="#FA776C" rx="15" height="30" width="30" y="45" x="56"/>
  <text transform="rotate(-0.141551, 229.581, 52.3078) matrix(3.44558, 0, 0, 3.46382, -313.617, -38.9038)" font-weight="bold" xml:space="preserve" text-anchor="start" font-family="'Antonio'" font-size="24" stroke-width="0" id="svg_6" y="38.49" x="125.0648" fill="#000000">Eclipse</text>
 </g>
</svg>